<svg xmlns="http://www.w3.org/2000/svg" viewBox="0 0 260 260" width="260" height="260">
  <style>
    text {
      fill: #5b503f;
      font-family: Georgia, "Times New Roman", serif;
      font-style: italic;
      font-size: 17px;
      font-weight: 400;
      text-anchor: middle;
      dominant-baseline: middle;
    }
    .week {
      font-style: normal;
      font-size: 16px;
    }
    .mark {
      fill: none;
      stroke: #5b503f;
      stroke-width: 1.4;
    }
  </style>
  <g class="week">
    <text x="18" y="24">ДС</text>
    <text x="55" y="24">СС</text>
    <text x="92" y="24">СР</text>
    <text x="129" y="24">БС</text>
    <text x="166" y="24">ЖМ</text>
    <text x="203" y="24">СН</text>
    <text x="240" y="24">ЖС</text>
  </g>
  <g>
    <text x="55" y="63">1</text>
    <text x="92" y="63">2</text>
    <text x="129" y="63">3</text>
    <text x="166" y="63">4</text>
    <text x="203" y="63">5</text>
    <text x="240" y="63">6</text>
    <text x="18" y="101">7</text>
    <text x="55" y="101">8</text>
    <text x="92" y="101">9</text>
    <text x="129" y="101">10</text>
    <text x="166" y="101">11</text>
    <text x="203" y="101">12</text>
    <text x="240" y="101">13</text>
    <text x="18" y="139">14</text>
    <text x="55" y="139">15</text>
    <text x="92" y="139">16</text>
    <text x="129" y="139">17</text>
    <text x="166" y="139">18</text>
    <circle class="mark" cx="203" cy="139" r="19"/>
    <text x="203" y="139">19</text>
    <text x="240" y="139">20</text>
    <text x="18" y="177">21</text>
    <text x="55" y="177">22</text>
    <text x="92" y="177">23</text>
    <text x="129" y="177">24</text>
    <text x="166" y="177">25</text>
    <text x="203" y="177">26</text>
    <text x="240" y="177">27</text>
    <text x="18" y="215">28</text>
    <text x="55" y="215">29</text>
    <text x="92" y="215">30</text>
  </g>
</svg>
